<mxfile host="app.diagrams.net" modified="2024-04-29T22:53:52.220Z" agent="Mozilla/5.0 (Windows NT 10.0; Win64; x64) AppleWebKit/537.36 (KHTML, like Gecko) Chrome/124.0.0.0 Safari/537.36" version="24.3.0" etag="5a8-cxV5NfoMND-WWxeg" type="github">
  <diagram name="Page-1" id="oSsnNQ-nRhe0M8qrrfE7">
    <mxGraphModel>
      <root>
        <mxCell id="0" />
        <mxCell id="1" parent="0" />
      </root>
    </mxGraphModel>
  </diagram>
</mxfile>
